<svg xmlns="http://www.w3.org/2000/svg" fill="none" viewBox="0 0 102 87">
  <path fill="#F5AE5C" fill-rule="evenodd" d="M39.096 20.47c-.939 0-1.7-.763-1.7-1.705a7.738 7.738 0 0 1 2.072-5.331 4.513 4.513 0 0 0 0-6.397 7.738 7.738 0 0 1-2.072-5.331c0-.942.761-1.706 1.7-1.706s1.7.764 1.7 1.706a4.414 4.414 0 0 0 1.328 3.198 7.893 7.893 0 0 1 0 10.662 4.414 4.414 0 0 0-1.328 3.199c0 .942-.761 1.706-1.7 1.706ZM86.53 73.354h11.465a3.683 3.683 0 0 1 2.706.87 3.71 3.71 0 0 1 1.289 2.542v3.412c0 3.826-3.77 6.823-8.584 6.823H15.383C10.57 87 6.8 84.003 6.8 80.177v-3.412a3.71 3.71 0 0 1 1.289-2.542 3.684 3.684 0 0 1 2.706-.87h14.13a18.634 18.634 0 0 1-6.938-9.362 21.435 21.435 0 0 1-5.798.832C4.783 64.823 0 58.442 0 48.567c0-4.419 0-17.861 12.188-17.861 1.623 0 3.24.208 4.81.617V29a3.406 3.406 0 0 1 3.4-3.412h40.796c1.877 0 3.4 1.528 3.4 3.412v19.538c.434.194.88.361 1.336.501.321-.78.685-1.54 1.09-2.28.359-.644.93-1.142 1.616-1.408l8.729-3.347a3.094 3.094 0 0 1 2.179-.009c.74.291 1.462.625 2.163 1a11.73 11.73 0 0 0 1.401-2.808 4.832 4.832 0 0 1 3.481-3.185c.051-.812.077-1.625.077-2.422.014-3.328.029-7.103 4.238-8.712a3.758 3.758 0 0 1 3.27.232c.785.438 3.106 1.764 4.83 10.065a4.16 4.16 0 0 1 2.768 3.481 35.56 35.56 0 0 1-.53 11.324 31.2 31.2 0 0 1-4.445 9.61c.156.334.296.64.408.897a3.251 3.251 0 0 1-.185 2.982 23.649 23.649 0 0 1-10.49 8.894Zm5.982-44.288a.387.387 0 0 0-.401-.02c-1.86.71-2.032 2.002-2.04 5.537-.002.578-.007 1.199-.03 1.835 2.158-.28 4.01-.406 5.44-.465-1.283-5.649-2.679-6.725-2.97-6.887Zm-6.16 12.156a1.45 1.45 0 0 1 1.138-.964c.219-.045.435-.08.663-.119h.004l.304-.051a56.227 56.227 0 0 1 8.982-.79h.112a.796.796 0 0 1 .841.682 32.128 32.128 0 0 1-.452 10.18 25.732 25.732 0 0 1-2.952 6.903 39.028 39.028 0 0 0-10.386-12.283 15.132 15.132 0 0 0 1.746-3.558Zm-7.883 4.002-8.52 3.267h-.008c-4.23 7.707-2.818 18.326-2.009 22.551.131.69.262 1.263.359 1.68 1.13.365 2.305.577 3.491.632h2.242a28.248 28.248 0 0 0 8.34-1.902c7.778-2.979 10.804-7.095 11.744-8.726-1.02-2.197-6.54-13.911-15.639-17.502ZM59.594 70.72a32.183 32.183 0 0 0 5.21 2c.034.157.067.3.097.434l.044.198h-8.34a18.782 18.782 0 0 0 2.99-2.632ZM57.76 65.6a22.663 22.663 0 0 0 6.378 3.318 42.465 42.465 0 0 1 .68-16.672 13.579 13.579 0 0 1-3.425-1.56 1.24 1.24 0 0 0-1.31.028c-.232.135-.435.266-.63.391l-.24.153a60.388 60.388 0 0 0-7.463 5.512c-.019.02-.041.041-.063.061-.38.292-.508.81-.306 1.246a29.367 29.367 0 0 0 6.38 7.523Zm-8.336-20.005a.569.569 0 0 1 .37-.38c1.803-.683 2.627.132 4.726 2.833.36.462.747.957 1.161 1.453a64.851 64.851 0 0 0-4.53 3.335c-1.768-3.954-2.084-6.317-1.727-7.241Zm-37.236 8.993a12.129 12.129 0 0 0 4.81-1.07V42.52a7.231 7.231 0 0 0-4.81-1.578c-.84 0-1.989 0-1.989 7.625 0 2.92.697 6.022 1.989 6.022ZM3.4 48.568c0-6.73 1-14.45 8.788-14.45a15.272 15.272 0 0 1 4.81.752v3.666a11.323 11.323 0 0 0-4.81-1.007c-4.977 0-5.389 5.222-5.389 11.037C6.8 54.474 8.814 58 12.188 58a14.86 14.86 0 0 0 4.81-.853V58c.008.892.08 1.782.214 2.663a18.18 18.18 0 0 1-5.024.749c-5.502 0-8.788-4.801-8.788-12.843ZM20.398 58a15.068 15.068 0 0 0 .396 3.453v-.005c1.571 6.984 7.768 11.934 14.902 11.905h10.2a15.144 15.144 0 0 0 10.695-4.405l-.054-.037c-.29-.199-.579-.398-.859-.614a32.793 32.793 0 0 1-7.189-8.426 4.31 4.31 0 0 1 .077-4.547c-2.424-5.07-3.196-8.68-2.31-10.971a3.958 3.958 0 0 1 2.33-2.329c4.29-1.64 6.68 1.435 8.604 3.91l.011.014c.45.58.923 1.16 1.414 1.723a4.611 4.611 0 0 1 2.579-.512V29H20.398v29ZM98.59 80.177c0 1.849-2.38 3.411-5.184 3.411H15.383c-2.804 0-5.184-1.562-5.184-3.411V76.92c.18-.108.386-.162.595-.155h87.201c.21-.007.416.047.595.155v3.257ZM27.197 18.765c0 .942.761 1.706 1.7 1.706s1.7-.764 1.7-1.706a4.414 4.414 0 0 1 1.327-3.199 7.893 7.893 0 0 0 0-10.662 4.414 4.414 0 0 1-1.327-3.198c0-.942-.761-1.706-1.7-1.706s-1.7.764-1.7 1.706a7.738 7.738 0 0 0 2.072 5.33 4.513 4.513 0 0 1 0 6.398 7.738 7.738 0 0 0-2.072 5.33Zm22.098 1.706c-.939 0-1.7-.764-1.7-1.706a7.738 7.738 0 0 1 2.072-5.331 4.513 4.513 0 0 0 0-6.397 7.738 7.738 0 0 1-2.072-5.331c0-.942.761-1.706 1.7-1.706s1.7.764 1.7 1.706a4.414 4.414 0 0 0 1.328 3.198 7.893 7.893 0 0 1 0 10.662 4.414 4.414 0 0 0-1.328 3.199c0 .942-.761 1.706-1.7 1.706Z" clip-rule="evenodd"/>
</svg>
