<svg xmlns="http://www.w3.org/2000/svg" fill="none" viewBox="0 0 102 86">
  <path fill="#fff" fill-rule="evenodd" d="m85.844 42.063-.705-.203 3.622-3.643c8.687-8.733 8.687-22.944 0-31.677-6.996-7.036-17.924-8.574-26.57-3.74l-4.864 2.716A107.365 107.365 0 0 0 33.55 23.551a108.086 108.086 0 0 0-14.132 17.576l-3.262.936C6.643 44.796 0 53.651 0 63.6 0 75.952 9.993 86 22.277 86h57.448C92.007 86 102 75.952 102 63.6c0-9.949-6.643-18.804-16.156-21.537Zm-.478 3.324a141.141 141.141 0 0 1-1.213 13.1c-.034.248-.464.248-.5 0a141.43 141.43 0 0 1-1.262-13.976l2.549.733c.081.024.16.052.24.08.062.022.123.043.186.063ZM64.018 5.574c-.077.038-.154.075-.23.117l-2.315 1.296a139.25 139.25 0 0 0 10.72 8.984c.1.076.24.066.329-.023a.257.257 0 0 0 .023-.331c-2.606-3.494-5.424-6.883-8.356-10.127-.056.029-.113.057-.17.084Zm-5.567 3.108a143.157 143.157 0 0 0 11.766 9.934 3.512 3.512 0 0 0 2.122.708c.915 0 1.826-.35 2.51-1.037a3.594 3.594 0 0 0 .328-4.655c-2.431-3.26-5.057-6.417-7.772-9.47 6.612-2.04 14.007-.328 19.028 4.72 7.404 7.444 7.404 19.555 0 27l-4.914 4.94-1.023-.294c-9.177-2.637-18.682-3.998-28.201-4.112a143.135 143.135 0 0 0-9.52-10.61l-3.316-3.334c1.629-1.49 3.3-2.93 5.02-4.31l.621.624a142.902 142.902 0 0 0 15.23 13.28 3.514 3.514 0 0 0 2.122.709c.915 0 1.826-.351 2.509-1.038a3.592 3.592 0 0 0 .329-4.655 142.836 142.836 0 0 0-12.727-14.81 102.738 102.738 0 0 1 5.888-3.59Zm10.644 32.594c-1.092-.194-2.19-.366-3.289-.525v.467c0 6.584.471 13.229 1.394 19.75.036.248.465.248.5 0a141.097 141.097 0 0 0 1.395-19.692ZM49.96 39.697h.001c.346-.008.693-.016 1.04-.016.347 0 .694.008 1.04.016.202.005.404.01.605.012v4.816c0 6.584-.47 13.229-1.395 19.75-.035.248-.464.248-.5 0a141.15 141.15 0 0 1-1.395-19.749V39.71l.603-.012h.001Zm12.697-10.631A139.697 139.697 0 0 0 49.794 14.15c-.91.64-1.806 1.298-2.695 1.966l.328.33A139.458 139.458 0 0 0 62.304 29.42a.25.25 0 0 0 .329-.023.257.257 0 0 0 .023-.331ZM37.06 24.738l3.388 3.406c2.626 2.64 5.13 5.441 7.548 8.3-1.129.031-2.256.084-3.383.15a139.394 139.394 0 0 1-6.493-6.11l-3.376-3.395c.16-.166.315-.334.471-.503l.001-.002h.001c.217-.235.434-.47.659-.696.24-.24.485-.475.73-.71.151-.146.304-.292.454-.44Zm-9.734 13.633c-.277-.292-.554-.583-.837-.869l-.306-.307c-.635.853-1.264 1.709-1.872 2.58 1.177-.304 2.359-.585 3.545-.848a76.97 76.97 0 0 1-.53-.555Zm4.357-.22a139.747 139.747 0 0 0-2.868-2.988l-.622-.625a106.048 106.048 0 0 1 4.29-5.045l3.31 3.331a143.385 143.385 0 0 0 4.301 4.126c-2.818.286-5.623.691-8.412 1.201Zm4.51 3.067v-.467c-1.098.16-2.196.331-3.29.525.004 6.566.472 13.19 1.395 19.692.036.248.466.248.5 0a141.191 141.191 0 0 0 1.395-19.75ZM19.61 44.513a141.505 141.505 0 0 1-1.262 13.975c-.035.248-.464.248-.5 0a141.136 141.136 0 0 1-1.213-13.1c.063-.02.124-.04.186-.063a4.1 4.1 0 0 1 .24-.079l2.549-.733Zm2.668 38.179h57.446c10.47 0 18.987-8.566 18.987-19.092 0-7.128-4.011-13.587-10.107-16.85a143.96 143.96 0 0 1-1.194 12.205c-.248 1.743-1.755 3.058-3.506 3.058-1.75 0-3.257-1.315-3.506-3.058a144.031 144.031 0 0 1-1.336-15.39 102.718 102.718 0 0 0-6.687-1.65c-.031 6.51-.5 13.075-1.416 19.521-.249 1.744-1.756 3.059-3.506 3.059-1.75 0-3.258-1.315-3.506-3.057-.95-6.677-1.43-13.48-1.43-20.22v-.885a102.89 102.89 0 0 0-6.58-.52v4.713c0 6.74-.48 13.542-1.43 20.219-.249 1.743-1.755 3.058-3.506 3.058-1.75 0-3.257-1.315-3.506-3.057-.95-6.676-1.43-13.48-1.43-20.22v-4.713c-2.2.105-4.394.275-6.58.52v.885c0 6.74-.48 13.542-1.43 20.218-.248 1.744-1.755 3.059-3.506 3.059-1.75 0-3.257-1.315-3.506-3.059a144.063 144.063 0 0 1-1.416-19.522 103.764 103.764 0 0 0-6.688 1.651c-.174 5.14-.613 10.31-1.335 15.39-.249 1.743-1.756 3.058-3.506 3.058-1.75 0-3.258-1.315-3.506-3.057a144.04 144.04 0 0 1-1.194-12.206C7.3 50.014 3.29 56.472 3.29 63.6c0 10.526 8.517 19.092 18.987 19.092Z" clip-rule="evenodd"/>
</svg>
