<svg xmlns="http://www.w3.org/2000/svg" fill="none" viewBox="0 0 91 96">
  <path fill="#F5AE5C" fill-rule="evenodd" d="M90.98 57.309a1.96 1.96 0 0 1 0 .26c.014.1.02.201.02.302v36.121A2.007 2.007 0 0 1 88.994 96h-.36L1.644 79.937A2.007 2.007 0 0 1 0 77.93V42.07a2.01 2.01 0 0 1 .16-.743v-.22C6.038 30.865 16.869 24.32 31.53 22.11a9.764 9.764 0 0 1 4.734-2.59c-.2-4.337.38-14.416 9.306-19.255a2.029 2.029 0 0 1 2.768.763 2.033 2.033 0 0 1-.762 2.77c-6.88 3.695-7.28 12.048-6.94 15.742a9.684 9.684 0 0 1 4.012 1.847c3.087.028 6.168.256 9.226.683.401.068.772.258 1.063.542l35.682 34.133.18.241c.07.102.13.21.18.322ZM44.387 28.978a5.78 5.78 0 0 0-5.797-5.763 5.78 5.78 0 0 0-5.756 5.783v.02a5.78 5.78 0 0 0 5.796 5.763 5.78 5.78 0 0 0 5.757-5.803Zm-15.244-2.39a9.661 9.661 0 0 0-.32 2.39c-.159 5.41 4.093 9.923 9.496 10.081 5.403.159 9.912-4.097 10.07-9.506a9.81 9.81 0 0 0-.813-4.21c2.267.121 4.011.322 4.814.422L82.837 54.9 5.456 40.603c4.954-7.148 12.937-11.826 23.687-14.014ZM4.072 66.606v9.638l82.997 15.34-.02-10.02L4.072 66.606Zm0-4.076v-6.023l82.977 14.958.02 6.064L4.072 62.529Zm0-18.09v8.03l82.997 15.02-.04-7.65-21.401-4.016L4.072 44.438Z" clip-rule="evenodd"/>
</svg>
