<?xml version="1.0" standalone="no"?>
<!DOCTYPE svg PUBLIC "-//W3C//DTD SVG 20010904//EN"
 "http://www.w3.org/TR/2001/REC-SVG-20010904/DTD/svg10.dtd">
<svg version="1.0" xmlns="http://www.w3.org/2000/svg"
 width="952.000000pt" height="952.000000pt" viewBox="0 0 952.000000 952.000000"
 preserveAspectRatio="xMidYMid meet">
<metadata>
Created by potrace 1.14, written by Peter Selinger 2001-2017
</metadata>
<g transform="translate(0.000000,952.000000) scale(0.100000,-0.100000)"
fill="#000000" stroke="none">
<path d="M580 8745 c-154 -32 -249 -83 -366 -200 -74 -73 -98 -106 -132 -175
-23 -47 -50 -114 -59 -150 -17 -61 -18 -254 -18 -3460 0 -3200 1 -3399 17
-3460 10 -36 37 -103 60 -150 60 -120 188 -248 308 -308 47 -23 114 -50 150
-60 61 -16 297 -17 4220 -17 3923 0 4159 1 4220 17 36 10 103 37 150 60 120
60 248 188 308 308 23 47 50 114 60 150 16 61 17 260 17 3460 0 3200 -1 3399
-17 3460 -10 36 -37 103 -60 150 -61 122 -188 250 -308 308 -47 23 -112 50
-145 59 -57 17 -280 18 -4200 20 -3413 1 -4151 -1 -4205 -12z m2064 -2895
c201 -28 359 -126 424 -261 49 -102 68 -336 37 -467 -30 -126 -109 -239 -208
-296 -54 -32 -145 -62 -230 -76 -73 -13 -81 -30 -14 -30 124 -1 286 -64 378
-148 103 -94 152 -223 153 -402 3 -342 -134 -502 -498 -583 -101 -22 -102 -22
-1081 -22 l-980 0 0 285 0 285 70 8 c81 9 130 31 159 70 21 28 21 39 21 497 0
458 0 469 -21 497 -29 40 -83 64 -162 71 l-67 7 -3 288 -2 287 974 0 c625 0
1002 -4 1050 -10z m2016 -280 l0 -290 -37 0 c-57 0 -106 -29 -120 -70 -14 -41
-17 -300 -4 -300 14 0 333 199 358 224 53 51 34 114 -42 140 l-40 14 -3 286
-2 286 635 0 635 0 -2 -287 -3 -288 -67 -7 c-75 -7 -149 -29 -218 -63 -36 -19
-369 -211 -377 -219 -4 -4 524 -687 579 -750 57 -65 110 -94 188 -103 l50 -6
0 -288 0 -289 -710 0 -710 0 0 289 0 288 42 6 c23 3 53 14 67 25 21 16 26 28
25 65 0 42 -7 54 -117 191 -65 80 -121 146 -125 146 -4 0 -43 -22 -87 -48
l-80 -48 -3 -107 c-4 -175 15 -212 117 -224 l51 -6 0 -288 0 -289 -672 2 -673
3 0 285 0 285 70 8 c81 9 130 31 159 70 21 28 21 39 21 497 0 458 0 469 -21
497 -29 40 -83 64 -162 71 l-67 7 -3 288 -2 287 675 0 675 0 0 -290z m3480
280 c297 -37 481 -157 556 -364 53 -146 54 -366 3 -519 -25 -74 -95 -182 -141
-218 -78 -62 -211 -109 -305 -109 -24 0 -43 -5 -43 -10 0 -13 6 -15 93 -28
131 -20 248 -96 298 -194 36 -70 50 -136 55 -263 6 -155 11 -182 35 -206 20
-20 69 -25 99 -9 33 18 40 66 40 276 l0 204 91 0 91 0 -5 -252 c-5 -267 -11
-308 -58 -403 -35 -71 -112 -143 -193 -181 -129 -61 -178 -69 -406 -69 -198 0
-208 1 -285 28 -98 34 -174 85 -219 146 -70 96 -84 157 -95 441 -5 118 -14
231 -20 251 -30 97 -86 137 -206 146 l-75 6 0 -136 c0 -195 22 -230 156 -244
l54 -6 0 -288 0 -289 -695 0 -695 0 0 290 0 290 38 0 c64 0 155 28 179 55 40
45 43 83 43 513 0 450 -4 486 -51 526 -30 26 -105 46 -169 46 l-40 0 0 290 0
290 893 0 c554 0 925 -4 977 -10z"/>
<path d="M1802 5073 l3 -208 145 0 c175 0 199 9 243 94 58 116 19 265 -80 307
-22 10 -76 14 -173 14 l-140 0 2 -207z"/>
<path d="M1808 4584 c-5 -4 -8 -106 -8 -227 l0 -219 168 4 c198 4 231 14 271
87 20 36 24 58 24 125 0 44 -5 97 -11 117 -14 42 -54 83 -97 100 -34 13 -336
25 -347 13z"/>
<path d="M7450 5040 l0 -240 104 0 c56 0 118 5 137 11 80 27 124 106 123 224
0 93 -19 156 -58 193 -44 42 -84 52 -202 52 l-104 0 0 -240z"/>
</g>
</svg>
